<mxfile host="Electron" agent="Mozilla/5.0 (Windows NT 10.0; Win64; x64) AppleWebKit/537.36 (KHTML, like Gecko) draw.io/26.2.15 Chrome/134.0.6998.205 Electron/35.2.1 Safari/537.36" version="26.2.15">
  <diagram name="Page-1" id="qljIcW31VRLwgOV4WVI2">
    <mxGraphModel dx="1226" dy="736" grid="1" gridSize="10" guides="1" tooltips="1" connect="1" arrows="1" fold="1" page="1" pageScale="1" pageWidth="1100" pageHeight="850" math="0" shadow="0">
      <root>
        <mxCell id="0" />
        <mxCell id="1" parent="0" />
        <mxCell id="otJ9-hfoNs8sJHZ8y0cO-15" style="edgeStyle=orthogonalEdgeStyle;rounded=0;orthogonalLoop=1;jettySize=auto;html=1;entryX=0.5;entryY=0;entryDx=0;entryDy=0;endArrow=none;startFill=0;" parent="1" source="otJ9-hfoNs8sJHZ8y0cO-1" target="otJ9-hfoNs8sJHZ8y0cO-9" edge="1">
          <mxGeometry relative="1" as="geometry" />
        </mxCell>
        <mxCell id="otJ9-hfoNs8sJHZ8y0cO-1" value="Internet" style="ellipse;shape=cloud;whiteSpace=wrap;html=1;" parent="1" vertex="1">
          <mxGeometry x="555" y="80" width="120" height="80" as="geometry" />
        </mxCell>
        <mxCell id="otJ9-hfoNs8sJHZ8y0cO-6" style="edgeStyle=orthogonalEdgeStyle;rounded=0;orthogonalLoop=1;jettySize=auto;html=1;endArrow=none;startFill=0;dashed=1;dashPattern=8 8;" parent="1" source="otJ9-hfoNs8sJHZ8y0cO-5" target="otJ9-hfoNs8sJHZ8y0cO-1" edge="1">
          <mxGeometry relative="1" as="geometry" />
        </mxCell>
        <mxCell id="otJ9-hfoNs8sJHZ8y0cO-7" value="IPSec&lt;div&gt;VPN&lt;/div&gt;" style="edgeLabel;html=1;align=center;verticalAlign=middle;resizable=0;points=[];" parent="otJ9-hfoNs8sJHZ8y0cO-6" vertex="1" connectable="0">
          <mxGeometry x="0.1939" y="1" relative="1" as="geometry">
            <mxPoint x="-14" y="-19" as="offset" />
          </mxGeometry>
        </mxCell>
        <mxCell id="otJ9-hfoNs8sJHZ8y0cO-5" value="Head Office" style="ellipse;whiteSpace=wrap;html=1;aspect=fixed;" parent="1" vertex="1">
          <mxGeometry x="335" y="80" width="80" height="80" as="geometry" />
        </mxCell>
        <mxCell id="otJ9-hfoNs8sJHZ8y0cO-16" style="edgeStyle=orthogonalEdgeStyle;rounded=0;orthogonalLoop=1;jettySize=auto;html=1;entryX=0.5;entryY=0;entryDx=0;entryDy=0;endArrow=none;startFill=0;" parent="1" source="otJ9-hfoNs8sJHZ8y0cO-9" target="otJ9-hfoNs8sJHZ8y0cO-12" edge="1">
          <mxGeometry relative="1" as="geometry" />
        </mxCell>
        <mxCell id="otJ9-hfoNs8sJHZ8y0cO-9" value="Branch Office&lt;div&gt;Router&lt;/div&gt;" style="ellipse;whiteSpace=wrap;html=1;aspect=fixed;" parent="1" vertex="1">
          <mxGeometry x="575" y="200" width="80" height="80" as="geometry" />
        </mxCell>
        <mxCell id="otJ9-hfoNs8sJHZ8y0cO-10" value="" style="group" parent="1" vertex="1" connectable="0">
          <mxGeometry x="555" y="320" width="120" height="102.75999999999999" as="geometry" />
        </mxCell>
        <mxCell id="otJ9-hfoNs8sJHZ8y0cO-11" value="" style="shape=mxgraph.networks2.icon;aspect=fixed;fillColor=#EDEDED;strokeColor=#000000;gradientColor=#5B6163;network2IconShadow=1;network2bgFillColor=none;network2Icon=mxgraph.networks2.firewall;network2IconXOffset=0.0001;network2IconYOffset=0.0001;network2IconW=1;network2IconH=0.608;" parent="otJ9-hfoNs8sJHZ8y0cO-10" vertex="1">
          <mxGeometry x="0.3299999999999841" y="30" width="119.67" height="72.76" as="geometry" />
        </mxCell>
        <mxCell id="otJ9-hfoNs8sJHZ8y0cO-12" value="Firewall" style="rounded=0;whiteSpace=wrap;html=1;" parent="otJ9-hfoNs8sJHZ8y0cO-10" vertex="1">
          <mxGeometry width="120" height="30" as="geometry" />
        </mxCell>
        <mxCell id="otJ9-hfoNs8sJHZ8y0cO-25" style="edgeStyle=orthogonalEdgeStyle;rounded=0;orthogonalLoop=1;jettySize=auto;html=1;entryX=0.5;entryY=0;entryDx=0;entryDy=0;endArrow=none;startFill=0;" parent="1" source="otJ9-hfoNs8sJHZ8y0cO-14" target="otJ9-hfoNs8sJHZ8y0cO-21" edge="1">
          <mxGeometry relative="1" as="geometry" />
        </mxCell>
        <mxCell id="34bGE2L2Q0bfwkFBYaSi-3" style="edgeStyle=orthogonalEdgeStyle;rounded=0;orthogonalLoop=1;jettySize=auto;html=1;endArrow=none;startFill=0;" edge="1" parent="1" source="otJ9-hfoNs8sJHZ8y0cO-14" target="34bGE2L2Q0bfwkFBYaSi-1">
          <mxGeometry relative="1" as="geometry" />
        </mxCell>
        <mxCell id="otJ9-hfoNs8sJHZ8y0cO-14" value="SWITCH" style="rounded=0;whiteSpace=wrap;html=1;" parent="1" vertex="1">
          <mxGeometry x="540" y="470" width="150" height="75" as="geometry" />
        </mxCell>
        <mxCell id="otJ9-hfoNs8sJHZ8y0cO-17" style="edgeStyle=orthogonalEdgeStyle;rounded=0;orthogonalLoop=1;jettySize=auto;html=1;entryX=0.5;entryY=0;entryDx=0;entryDy=0;endArrow=none;startFill=0;" parent="1" source="otJ9-hfoNs8sJHZ8y0cO-11" target="otJ9-hfoNs8sJHZ8y0cO-14" edge="1">
          <mxGeometry relative="1" as="geometry" />
        </mxCell>
        <mxCell id="otJ9-hfoNs8sJHZ8y0cO-18" value="" style="group" parent="1" vertex="1" connectable="0">
          <mxGeometry x="415" y="590" width="80" height="115" as="geometry" />
        </mxCell>
        <mxCell id="otJ9-hfoNs8sJHZ8y0cO-19" value="x20 PCs" style="whiteSpace=wrap;html=1;aspect=fixed;" parent="otJ9-hfoNs8sJHZ8y0cO-18" vertex="1">
          <mxGeometry x="10" y="50" width="65" height="65" as="geometry" />
        </mxCell>
        <mxCell id="otJ9-hfoNs8sJHZ8y0cO-20" value="" style="fontColor=#0066CC;verticalAlign=top;verticalLabelPosition=bottom;labelPosition=center;align=center;html=1;outlineConnect=0;fillColor=#CCCCCC;strokeColor=#6881B3;gradientColor=none;gradientDirection=north;strokeWidth=2;shape=mxgraph.networks.pc;" parent="otJ9-hfoNs8sJHZ8y0cO-18" vertex="1">
          <mxGeometry width="80" height="50" as="geometry" />
        </mxCell>
        <mxCell id="otJ9-hfoNs8sJHZ8y0cO-21" value="Acess Point 1&lt;div&gt;(Staff)&lt;/div&gt;" style="rounded=0;whiteSpace=wrap;html=1;" parent="1" vertex="1">
          <mxGeometry x="705" y="590" width="110" height="50" as="geometry" />
        </mxCell>
        <mxCell id="otJ9-hfoNs8sJHZ8y0cO-22" value="&lt;b&gt;Subnet&lt;/b&gt;: 12.0.0.0 /24" style="text;html=1;align=center;verticalAlign=middle;resizable=0;points=[];autosize=1;strokeColor=none;fillColor=none;" parent="1" vertex="1">
          <mxGeometry x="665" y="150" width="130" height="30" as="geometry" />
        </mxCell>
        <mxCell id="otJ9-hfoNs8sJHZ8y0cO-23" value="&lt;b&gt;Gateway&lt;/b&gt;: 12.0.0.1" style="text;html=1;align=center;verticalAlign=middle;resizable=0;points=[];autosize=1;strokeColor=none;fillColor=none;" parent="1" vertex="1">
          <mxGeometry x="665" y="200" width="120" height="30" as="geometry" />
        </mxCell>
        <mxCell id="otJ9-hfoNs8sJHZ8y0cO-24" style="edgeStyle=orthogonalEdgeStyle;rounded=0;orthogonalLoop=1;jettySize=auto;html=1;entryX=0.5;entryY=0.07;entryDx=0;entryDy=0;entryPerimeter=0;endArrow=none;startFill=0;" parent="1" source="otJ9-hfoNs8sJHZ8y0cO-14" target="otJ9-hfoNs8sJHZ8y0cO-20" edge="1">
          <mxGeometry relative="1" as="geometry" />
        </mxCell>
        <mxCell id="otJ9-hfoNs8sJHZ8y0cO-30" value="12.0.0.3" style="text;html=1;align=center;verticalAlign=middle;resizable=0;points=[];autosize=1;strokeColor=none;fillColor=none;" parent="1" vertex="1">
          <mxGeometry x="620" y="440" width="70" height="30" as="geometry" />
        </mxCell>
        <mxCell id="otJ9-hfoNs8sJHZ8y0cO-31" value="12.0.0.4" style="text;html=1;align=center;verticalAlign=middle;resizable=0;points=[];autosize=1;strokeColor=none;fillColor=none;" parent="1" vertex="1">
          <mxGeometry x="665" y="558" width="70" height="30" as="geometry" />
        </mxCell>
        <mxCell id="otJ9-hfoNs8sJHZ8y0cO-32" value="12.0.0.10 - 12.0.0.29" style="text;html=1;align=center;verticalAlign=middle;resizable=0;points=[];autosize=1;strokeColor=none;fillColor=none;" parent="1" vertex="1">
          <mxGeometry x="320" y="558" width="130" height="30" as="geometry" />
        </mxCell>
        <mxCell id="ViufsZwY0qe4ARSIQJDT-1" value="&lt;b&gt;&lt;font style=&quot;font-size: 18px;&quot;&gt;Wired Network&lt;/font&gt;&lt;/b&gt;&lt;div&gt;&lt;b&gt;&lt;font style=&quot;font-size: 18px;&quot;&gt;Brach Office - Brisbane&lt;/font&gt;&lt;/b&gt;&lt;/div&gt;" style="text;html=1;align=center;verticalAlign=middle;whiteSpace=wrap;rounded=0;strokeColor=default;fillColor=none;" parent="1" vertex="1">
          <mxGeometry x="30" y="30" width="290" height="110" as="geometry" />
        </mxCell>
        <mxCell id="ViufsZwY0qe4ARSIQJDT-2" value="&lt;div&gt;Name: Trung Hieu HUYNH&lt;/div&gt;&lt;div&gt;ID: 12281833&lt;/div&gt;" style="text;html=1;align=center;verticalAlign=middle;resizable=0;points=[];autosize=1;strokeColor=none;fillColor=none;" parent="1" vertex="1">
          <mxGeometry x="80" y="150" width="170" height="40" as="geometry" />
        </mxCell>
        <mxCell id="iVGFgGwi3ow2uaBs2Ufq-1" value="12.0.0.2" style="text;html=1;align=center;verticalAlign=middle;resizable=0;points=[];autosize=1;strokeColor=none;fillColor=none;" parent="1" vertex="1">
          <mxGeometry x="635" y="290" width="70" height="30" as="geometry" />
        </mxCell>
        <mxCell id="34bGE2L2Q0bfwkFBYaSi-1" value="Acess Point 2&lt;div&gt;(Guest)&lt;/div&gt;" style="rounded=0;whiteSpace=wrap;html=1;" vertex="1" parent="1">
          <mxGeometry x="845" y="590" width="110" height="50" as="geometry" />
        </mxCell>
        <mxCell id="34bGE2L2Q0bfwkFBYaSi-2" value="12.0.0.5" style="text;html=1;align=center;verticalAlign=middle;resizable=0;points=[];autosize=1;strokeColor=none;fillColor=none;" vertex="1" parent="1">
          <mxGeometry x="910" y="560" width="70" height="30" as="geometry" />
        </mxCell>
      </root>
    </mxGraphModel>
  </diagram>
</mxfile>
